<svg width="16" height="16" viewBox="0 0 16 16" fill="none" xmlns="http://www.w3.org/2000/svg">
<path fill-rule="evenodd" clip-rule="evenodd" d="M10.854 3.646C10.9006 3.69245 10.9375 3.74762 10.9627 3.80837C10.9879 3.86911 11.0009 3.93423 11.0009 4C11.0009 4.06577 10.9879 4.13089 10.9627 4.19163C10.9375 4.25238 10.9006 4.30755 10.854 4.354L7.207 8L10.854 11.646C10.9479 11.7399 11.0006 11.8672 11.0006 12C11.0006 12.1328 10.9479 12.2601 10.854 12.354C10.7601 12.4479 10.6328 12.5006 10.5 12.5006C10.3672 12.5006 10.2399 12.4479 10.146 12.354L6.146 8.354C6.09944 8.30755 6.06249 8.25238 6.03729 8.19163C6.01208 8.13089 5.99911 8.06577 5.99911 8C5.99911 7.93423 6.01208 7.86911 6.03729 7.80837C6.06249 7.74762 6.09944 7.69245 6.146 7.646L10.146 3.646C10.1924 3.59944 10.2476 3.56249 10.3084 3.53729C10.3691 3.51208 10.4342 3.49911 10.5 3.49911C10.5658 3.49911 10.6309 3.51208 10.6916 3.53729C10.7524 3.56249 10.8076 3.59944 10.854 3.646ZM3.5 1C3.36739 1 3.24021 1.05268 3.14645 1.14645C3.05268 1.24021 3 1.36739 3 1.5V14.5C3 14.6326 3.05268 14.7598 3.14645 14.8536C3.24021 14.9473 3.36739 15 3.5 15C3.63261 15 3.75979 14.9473 3.85355 14.8536C3.94732 14.7598 4 14.6326 4 14.5V1.5C4 1.36739 3.94732 1.24021 3.85355 1.14645C3.75979 1.05268 3.63261 1 3.5 1Z" fill="black"/>
</svg>
