<svg width="26" height="26" viewBox="0 0 26 26" fill="none" xmlns="http://www.w3.org/2000/svg">
<g clip-path="url(#clip0_5_51)">
<path d="M20.0752 7.07524C20.1508 6.9997 20.2107 6.91001 20.2516 6.81131C20.2925 6.71261 20.3135 6.60682 20.3135 6.49999C20.3135 6.39315 20.2925 6.28737 20.2516 6.18867C20.2107 6.08996 20.1508 6.00028 20.0752 5.92474C19.9997 5.8492 19.91 5.78927 19.8113 5.74839C19.7126 5.7075 19.6068 5.68646 19.5 5.68646C19.3932 5.68646 19.2874 5.7075 19.1887 5.74839C19.09 5.78927 19.0003 5.8492 18.9247 5.92474L8.12499 16.7261L3.01274 11.6122C2.9372 11.5367 2.84751 11.4768 2.74881 11.4359C2.65011 11.395 2.54432 11.374 2.43749 11.374C2.22173 11.374 2.0148 11.4597 1.86224 11.6122C1.70967 11.7648 1.62396 11.9717 1.62396 12.1875C1.62396 12.4032 1.70967 12.6102 1.86224 12.7627L7.54974 18.4502C7.62521 18.5259 7.71487 18.5859 7.81358 18.6269C7.91229 18.6679 8.01812 18.6889 8.12499 18.6889C8.23186 18.6889 8.33768 18.6679 8.43639 18.6269C8.5351 18.5859 8.62476 18.5259 8.70024 18.4502L20.0752 7.07524ZM13.2372 18.4502L11.7812 16.9926L12.9301 15.8437L13.8125 16.7261L24.6122 5.92474C24.7648 5.77217 24.9717 5.68646 25.1875 5.68646C25.4032 5.68646 25.6102 5.77217 25.7627 5.92474C25.9153 6.0773 26.001 6.28423 26.001 6.49999C26.001 6.71575 25.9153 6.92267 25.7627 7.07524L14.3877 18.4502C14.3123 18.5259 14.2226 18.5859 14.1239 18.6269C14.0252 18.6679 13.9194 18.6889 13.8125 18.6889C13.7056 18.6889 13.5998 18.6679 13.5011 18.6269C13.4024 18.5859 13.3127 18.5259 13.2372 18.4502Z" fill="black"/>
<path d="M8.70024 11.6122L10.1562 13.0699L9.00736 14.2187L7.54974 12.7627C7.39717 12.6102 7.31146 12.4032 7.31146 12.1875C7.31146 11.9717 7.39717 11.7648 7.54974 11.6122C7.7023 11.4597 7.90923 11.374 8.12499 11.374C8.34075 11.374 8.54767 11.4597 8.70024 11.6122Z" fill="black"/>
</g>
<defs>
<clipPath id="clip0_5_51">
<rect width="26" height="26" fill="white"/>
</clipPath>
</defs>
</svg>
