<svg width="25" height="26" viewBox="0 0 25 26" fill="none" xmlns="http://www.w3.org/2000/svg">
<path fill-rule="evenodd" clip-rule="evenodd" d="M9.60312 9.98724C9.67569 9.91157 9.7619 9.85154 9.85681 9.81058C9.95173 9.76962 10.0535 9.74854 10.1562 9.74854C10.259 9.74854 10.3608 9.76962 10.4557 9.81058C10.5506 9.85154 10.6368 9.91157 10.7094 9.98724L12.5 11.8511L14.2906 9.98724C14.3633 9.91169 14.4495 9.85177 14.5444 9.81089C14.6393 9.77 14.741 9.74896 14.8437 9.74896C14.9465 9.74896 15.0482 9.77 15.1431 9.81089C15.238 9.85177 15.3242 9.91169 15.3969 9.98724C15.4695 10.0628 15.5271 10.1525 15.5664 10.2512C15.6057 10.3499 15.626 10.4557 15.626 10.5625C15.626 10.6693 15.6057 10.7751 15.5664 10.8738C15.5271 10.9725 15.4695 11.0622 15.3969 11.1377L13.6047 13L15.3969 14.8622C15.5436 15.0148 15.626 15.2217 15.626 15.4375C15.626 15.6532 15.5436 15.8602 15.3969 16.0127C15.2502 16.1653 15.0512 16.251 14.8437 16.251C14.6363 16.251 14.4373 16.1653 14.2906 16.0127L12.5 14.1489L10.7094 16.0127C10.5627 16.1653 10.3637 16.251 10.1562 16.251C9.94878 16.251 9.74982 16.1653 9.60312 16.0127C9.45642 15.8602 9.37401 15.6532 9.37401 15.4375C9.37401 15.2217 9.45642 15.0148 9.60312 14.8622L11.3953 13L9.60312 11.1377C9.53036 11.0623 9.47264 10.9726 9.43325 10.8739C9.39387 10.7752 9.3736 10.6694 9.3736 10.5625C9.3736 10.4556 9.39387 10.3498 9.43325 10.2511C9.47264 10.1524 9.53036 10.0627 9.60312 9.98724Z" fill="black"/>
<path d="M4.6875 0H20.3125C21.1413 0 21.9362 0.34241 22.5222 0.951903C23.1083 1.5614 23.4375 2.38805 23.4375 3.25V22.75C23.4375 23.612 23.1083 24.4386 22.5222 25.0481C21.9362 25.6576 21.1413 26 20.3125 26H4.6875C3.8587 26 3.06384 25.6576 2.47779 25.0481C1.89174 24.4386 1.5625 23.612 1.5625 22.75V21.125H3.125V22.75C3.125 23.181 3.28962 23.5943 3.58265 23.899C3.87567 24.2038 4.2731 24.375 4.6875 24.375H20.3125C20.7269 24.375 21.1243 24.2038 21.4174 23.899C21.7104 23.5943 21.875 23.181 21.875 22.75V3.25C21.875 2.81902 21.7104 2.4057 21.4174 2.10095C21.1243 1.7962 20.7269 1.625 20.3125 1.625H4.6875C4.2731 1.625 3.87567 1.7962 3.58265 2.10095C3.28962 2.4057 3.125 2.81902 3.125 3.25V4.875H1.5625V3.25C1.5625 2.38805 1.89174 1.5614 2.47779 0.951903C3.06384 0.34241 3.8587 0 4.6875 0Z" fill="black"/>
<path d="M1.5625 8.125V7.3125C1.5625 7.09701 1.64481 6.89035 1.79132 6.73798C1.93784 6.5856 2.13655 6.5 2.34375 6.5C2.55095 6.5 2.74966 6.5856 2.89618 6.73798C3.04269 6.89035 3.125 7.09701 3.125 7.3125V8.125H3.90625C4.11345 8.125 4.31216 8.2106 4.45868 8.36298C4.60519 8.51535 4.6875 8.72201 4.6875 8.9375C4.6875 9.15299 4.60519 9.35965 4.45868 9.51202C4.31216 9.6644 4.11345 9.75 3.90625 9.75H0.78125C0.57405 9.75 0.375336 9.6644 0.228823 9.51202C0.08231 9.35965 0 9.15299 0 8.9375C0 8.72201 0.08231 8.51535 0.228823 8.36298C0.375336 8.2106 0.57405 8.125 0.78125 8.125H1.5625ZM1.5625 13V12.1875C1.5625 11.972 1.64481 11.7653 1.79132 11.613C1.93784 11.4606 2.13655 11.375 2.34375 11.375C2.55095 11.375 2.74966 11.4606 2.89618 11.613C3.04269 11.7653 3.125 11.972 3.125 12.1875V13H3.90625C4.11345 13 4.31216 13.0856 4.45868 13.238C4.60519 13.3903 4.6875 13.597 4.6875 13.8125C4.6875 14.028 4.60519 14.2347 4.45868 14.387C4.31216 14.5394 4.11345 14.625 3.90625 14.625H0.78125C0.57405 14.625 0.375336 14.5394 0.228823 14.387C0.08231 14.2347 0 14.028 0 13.8125C0 13.597 0.08231 13.3903 0.228823 13.238C0.375336 13.0856 0.57405 13 0.78125 13H1.5625ZM1.5625 17.875V17.0625C1.5625 16.847 1.64481 16.6403 1.79132 16.488C1.93784 16.3356 2.13655 16.25 2.34375 16.25C2.55095 16.25 2.74966 16.3356 2.89618 16.488C3.04269 16.6403 3.125 16.847 3.125 17.0625V17.875H3.90625C4.11345 17.875 4.31216 17.9606 4.45868 18.113C4.60519 18.2653 4.6875 18.472 4.6875 18.6875C4.6875 18.903 4.60519 19.1097 4.45868 19.262C4.31216 19.4144 4.11345 19.5 3.90625 19.5H0.78125C0.57405 19.5 0.375336 19.4144 0.228823 19.262C0.08231 19.1097 0 18.903 0 18.6875C0 18.472 0.08231 18.2653 0.228823 18.113C0.375336 17.9606 0.57405 17.875 0.78125 17.875H1.5625Z" fill="black"/>
</svg>
