<svg width="21" height="23" viewBox="0 0 21 23" fill="none" xmlns="http://www.w3.org/2000/svg">
<g clip-path="url(#clip0_5_37)">
<path d="M17.7162 1.14283L17.9117 0.928645C18.0589 0.767525 18.2336 0.639737 18.4259 0.552576C18.6182 0.465415 18.8243 0.420588 19.0324 0.420654C19.2405 0.420721 19.4466 0.46568 19.6388 0.552965C19.831 0.640249 20.0057 0.76815 20.1528 0.929364C20.2999 1.09058 20.4166 1.28195 20.4962 1.49255C20.5758 1.70315 20.6167 1.92885 20.6166 2.15678C20.6166 2.3847 20.5755 2.61038 20.4958 2.82093C20.4161 3.03148 20.2994 3.22278 20.1522 3.3839L19.9566 3.59665C20.2911 4.00757 20.4695 4.54308 20.4551 5.09341C20.4407 5.64374 20.2346 6.16719 19.8792 6.55646L6.37091 21.3526C6.28646 21.4446 6.18075 21.5097 6.0651 21.541L0.815096 22.9785C0.705229 23.0084 0.590154 23.0067 0.481055 22.9736C0.371956 22.9404 0.272545 22.8769 0.192486 22.7892C0.112426 22.7016 0.0544417 22.5927 0.0241684 22.4732C-0.00610498 22.3537 -0.00763718 22.2277 0.0197207 22.1073L1.33222 16.3573C1.36094 16.2312 1.42036 16.1159 1.50416 16.0238L14.1593 2.16346C14.0327 2.06589 13.8787 2.02046 13.7246 2.03519C13.5704 2.04992 13.4259 2.12387 13.3167 2.24396L8.99591 6.97765C8.93489 7.04447 8.86246 7.09748 8.78274 7.13365C8.70302 7.16981 8.61757 7.18843 8.53128 7.18843C8.44499 7.18843 8.35955 7.16981 8.27983 7.13365C8.20011 7.09748 8.12767 7.04447 8.06666 6.97765C8.00564 6.91082 7.95724 6.83148 7.92422 6.74417C7.8912 6.65686 7.8742 6.56328 7.8742 6.46877C7.8742 6.37426 7.8912 6.28068 7.92422 6.19337C7.95724 6.10606 8.00564 6.02672 8.06666 5.95989L12.39 1.22765C12.7457 0.838104 13.224 0.612425 13.7268 0.596921C14.2295 0.581417 14.7187 0.777264 15.0938 1.14427C15.4544 0.791276 15.9211 0.596025 16.4047 0.59576C16.8884 0.595495 17.3552 0.790234 17.7162 1.14283ZM16.8709 2.24396C16.7478 2.10921 16.581 2.03352 16.4069 2.03352C16.2329 2.03352 16.066 2.10921 15.943 2.24396L2.55941 16.8993L1.55666 21.2937L5.56897 20.1955L18.9525 5.54014C19.0136 5.47338 19.0621 5.39406 19.0952 5.30674C19.1283 5.21942 19.1453 5.12581 19.1453 5.03127C19.1453 4.93673 19.1283 4.84312 19.0952 4.7558C19.0621 4.66848 19.0136 4.58916 18.9525 4.52239L16.8709 2.24396Z" fill="black"/>
</g>
<defs>
<clipPath id="clip0_5_37">
<rect width="21" height="23" fill="white"/>
</clipPath>
</defs>
</svg>
